<svg id="Layer_1" data-name="Layer 1" xmlns="http://www.w3.org/2000/svg" viewBox="0 0 516.71 740.65"><defs><style>.cls-1{fill:none;}.cls-1,.cls-2{stroke:#000;stroke-linecap:round;stroke-linejoin:round;stroke-width:20px;}</style></defs><title>bk</title><path class="cls-1" d="M452.87,622.38c1,5.25,2.59,16.79,2.59,22.25,0,61.17-66,110.77-147.47,110.77S160.52,705.81,160.52,644.63a80.75,80.75,0,0,1,4.72-26.85" transform="translate(-47.19 -24.75)"/><path class="cls-1" d="M122.31,421.34C114,311.05,75.81,256.42,63,225.63c-5.26-12.67-8.52-25.48-3-37.49C68,171,92,161.85,111.74,165.85c22.87,4.62,36.2,26.76,37.75,54.71" transform="translate(-47.19 -24.75)"/><path class="cls-1" d="M180.59,381.38c53.07-92.78,91.27-274.67,98.28-309,1.45-7.08,4.76-25.23,18.54-32.72,20.14-11,54.5-3.94,69.59,24.46,22.13,41.65,10.84,142.84-9.43,192" transform="translate(-47.19 -24.75)"/><path class="cls-2" d="M241.68,600s-22.93-55.46-9.84-80.34c10.83-20.58-11.1-26.84-14.46-10.4C214.33,524.13,219.95,572.65,241.68,600Z" transform="translate(-47.19 -24.75)"/><path class="cls-2" d="M204.95,608.67S174.17,543,181.67,508c6.2-29-17-34.58-16.66-12.09C165.28,516.27,177.33,574.82,204.95,608.67Z" transform="translate(-47.19 -24.75)"/><path class="cls-1" d="M397.68,659.46S457,638,511.65,551.12,558.67,395,540,345.77c-12.78-33.72-34-47.26-53.43-46.06a44.14,44.14,0,0,0-28.2,12.47c-15.69,15.38-24.49,40.29-23.47,98.82,1.42,81.26-93.54,86.93-105.35,12.76-7-44.16,18.17-55.62,39.21-64.25,18.42-7.56,54.49-7.09,78.31-35.45,6.17-7.35,8.66-19.93,6.57-31C446.4,254.47,377,241.84,325.3,266.43c-70.53,33.54-92.35,120.3-93.4,127.38" transform="translate(-47.19 -24.75)"/><path class="cls-1" d="M201.82,659.33c-23-16.94-105-108.91-76.3-257.6,1.8-9.32,3.24-18.7,4.56-28.11,8-57.36,32.41-193.45,20.12-263.37A41.53,41.53,0,0,1,151,91.4c1.7-5.81,4.66-11.61,9.86-15.83,17.79-14.47,57.69-8,72.89,11.27,31.51,39.84,19.58,91.38,3.83,151.26" transform="translate(-47.19 -24.75)"/></svg>