<svg id="Layer_1" data-name="Layer 1" xmlns="http://www.w3.org/2000/svg" viewBox="0 0 557.33 740.74"><defs><style>.cls-1,.cls-2,.cls-3{stroke:#000;stroke-width:20px;}.cls-1,.cls-2{stroke-linecap:round;stroke-linejoin:round;}.cls-2,.cls-3{fill:none;}.cls-3{stroke-miterlimit:10;}</style></defs><title>hoover-crip</title><path class="cls-1" d="M337.88,208.75s-6.88,70.67.88,103.19c7.72,32.35,29,15.28,20.22-4C350,288.3,341.08,239.77,337.88,208.75Z" transform="translate(-26.41 -24.62)"/><path class="cls-1" d="M291.15,208.11s-0.29,89.65-9.73,125.1c-8.55,32.14,33.5,30.16,25,.48C296.11,297.76,291.15,208.11,291.15,208.11Z" transform="translate(-26.41 -24.62)"/><path class="cls-1" d="M244.87,208.4s6.88,70.67-.88,103.19c-7.72,32.35-29,15.28-20.22-4C232.73,288,241.67,239.42,244.87,208.4Z" transform="translate(-26.41 -24.62)"/><path class="cls-2" d="M480.85,470.57c27-14.34,61.5-42.3,71.62-86.11,15.27-66.1-20.5-264.1-201.58-264.1" transform="translate(-26.41 -24.62)"/><path class="cls-2" d="M428.23,133.21S528,35,277.25,34.62c-221.72-.3-122.42,96.85-122.42,96.85" transform="translate(-26.41 -24.62)"/><path class="cls-2" d="M215.34,120.27c-30.38,2.34-118.92,8.35-123,122.5C88.8,342.24,26.41,431.32,127.9,477.42" transform="translate(-26.41 -24.62)"/><path class="cls-3" d="M274,501.86c0,25.67,2,41.58,27.69,41.58a46.48,46.48,0,0,0,0-93C276,450.48,274,476.19,274,501.86Z" transform="translate(-26.41 -24.62)"/><path class="cls-2" d="M455.55,374.59S493,559.79,557.22,642.49s-74.48,162.46-149.31,74.57c-44-51.63-53.31-137.39-64.6-199.39a46.49,46.49,0,0,0-17.46-60.43c-5.54-9.48-12.51-14.94-21.82-14.94-54.48,0-27,186.87-101.79,274.76s-213.57,8.13-149.31-74.57S154.6,374.59,154.6,374.59" transform="translate(-26.41 -24.62)"/></svg>