<svg id="Layer_1" data-name="Layer 1" xmlns="http://www.w3.org/2000/svg" viewBox="0 0 739.16 479.36"><defs><style>.cls-1{fill:none;}.cls-1,.cls-2{stroke:#000;stroke-linecap:round;stroke-linejoin:round;stroke-width:20px;}</style></defs><title>piru</title><path class="cls-1" d="M477.62,457.29c60.21-22.78,98.27-103.46,88.4-154.72C544.88,192.77,425.5,174.4,425.5,174.4" transform="translate(-25.88 -65.72)"/><path class="cls-1" d="M333.2,390.58c16.07-.54,37.28-3.67,58.46-15.25,21.38-11.69,38.13-29.46,38.54-29S415,357.09,406.67,375.67A68.09,68.09,0,0,0,401,404.51" transform="translate(-25.88 -65.72)"/><path class="cls-1" d="M192.12,436.13s-57.84,87-114.77,22.38C4.84,376.15,25.52,99.62,154.3,167.32" transform="translate(-25.88 -65.72)"/><path class="cls-2" d="M196.23,164.95s55.88-44.41,102.37-31.49c32.94,9.16,41.61-14.08,12.56-18.31C287.75,111.73,224.32,124.48,196.23,164.95Z" transform="translate(-25.88 -65.72)"/><path class="cls-1" d="M479.19,192.71c113.91,16.06,190,11.49,224.1,5.35,7.4-1.33,26.21-5.12,38.76,5.3,18.34,15.24,15.26,54.2,3.18,76.65-20.52,38.15-107,50.84-176.76,37.29" transform="translate(-25.88 -65.72)"/><path class="cls-1" d="M448.09,134.77c113.91,16.06,173.69,13.85,207.8,7.71,7.4-1.33,26.21-5.12,38.76,5.3,10.73,8.92,14.13,26,12.68,43.05" transform="translate(-25.88 -65.72)"/><path class="cls-1" d="M642,139.13a36.67,36.67,0,0,0-.6-20.68c-0.33-1-3.29-9.69-10-15.4-12.47-10.62-32.59-6.48-38.76-5.3-43.08,8.24-147.15-5.51-147.15-5.51S353.11,77.77,317,75.87c-13.61-.72-68.63-0.27-119.3,35.72-58,41.23-57.75,122.59-58,124.24v0" transform="translate(-25.88 -65.72)"/><path class="cls-2" d="M212.81,201.26s45.6-31,77.1-16.62c22.32,10.17,30.57-6.66,10.54-12.7C284.29,167.06,236.32,173.21,212.81,201.26Z" transform="translate(-25.88 -65.72)"/><path class="cls-1" d="M255.16,430" transform="translate(-25.88 -65.72)"/><path class="cls-1" d="M341.52,522.19" transform="translate(-25.88 -65.72)"/><path class="cls-1" d="M140,355.67S140,432,306,504c14.61,6.34,54.31,22.87,88,28.39,126.66,20.75,108.73-84.35,37.58-116.1-53.88-24-98.33-25.7-98.33-25.7" transform="translate(-25.88 -65.72)"/><path class="cls-1" d="M324.44,413.25" transform="translate(-25.88 -65.72)"/></svg>