<svg id="Layer_1" data-name="Layer 1" xmlns="http://www.w3.org/2000/svg" viewBox="0 0 500.68 739.24"><defs><style>.cls-1{fill:none;stroke:#000;stroke-linecap:round;stroke-linejoin:round;stroke-width:20px;}</style></defs><title>victory</title><path class="cls-1" d="M391.69,305.27l25.63-181.69s9.59-94.3,69-87,47,98.89,47,98.89l-26.07,221" transform="translate(-55.32 -26.16)"/><path class="cls-1" d="M367.84,305.27L342.21,123.58s-9.59-94.3-69-87-47,98.89-47,98.89l19.42,164.62" transform="translate(-55.32 -26.16)"/><path class="cls-1" d="M414.54,653.3a277.89,277.89,0,0,0,57.39-34.93c73.44-57.45,79.46-131.61,71.3-184.3-10.31-66.51-62.54-119.54-129.35-127.69-24.79-3-53.2-.2-84.59,13.11-118.17,50.08-45,138.69,30.22,118.23,10.41-2.83,19.49-5.2,27.39-7.19,8.4-2.11,13.68,9.64,6.12,13.87-34.18,19.13-63.22,49.69-56.86,98.14" transform="translate(-55.32 -26.16)"/><path class="cls-1" d="M149.06,517.78s49,58.84,96.36,22.5S196.17,357.75,105.63,398.64s-7.84,182.45,46.38,224c14.29,11,34.39,22.78,58.59,32.43" transform="translate(-55.32 -26.16)"/><path class="cls-1" d="M478.52,613c22,17.83,58.73,141.82-158.51,142.39-207.56.54-199-91-168-132.75" transform="translate(-55.32 -26.16)"/><path class="cls-1" d="M257.51,517.57s60.82,8.4,53.66-81" transform="translate(-55.32 -26.16)"/><path class="cls-1" d="M121.23,393.41S114.76,302.49,179.32,286,282.48,350,282.48,350" transform="translate(-55.32 -26.16)"/></svg>