<?xml version="1.0" encoding="utf-8"?>
<!-- Generator: Adobe Illustrator 19.2.1, SVG Export Plug-In . SVG Version: 6.00 Build 0)  -->
<!DOCTYPE svg PUBLIC "-//W3C//DTD SVG 1.1//EN" "http://www.w3.org/Graphics/SVG/1.1/DTD/svg11.dtd">
<svg version="1.1" id="Layer_1" xmlns="http://www.w3.org/2000/svg" xmlns:xlink="http://www.w3.org/1999/xlink" x="0px" y="0px"
	 viewBox="0 0 612 792" style="enable-background:new 0 0 612 792;" xml:space="preserve">
<style type="text/css">
	.st0{fill:none;stroke:#000000;stroke-width:20;stroke-linecap:round;stroke-linejoin:round;stroke-miterlimit:10;}
	.st1{stroke:#000000;stroke-width:20;stroke-linecap:round;stroke-linejoin:round;stroke-miterlimit:10;}
</style>
<g>
	<path class="st0" d="M152.2,619.5c0,0,5.1,110.7,149.5,123.2c116.2,10.1,147.1-95.3,142.6-101.9"/>
	<path class="st0" d="M148.4,445.9c0,0-88.4-166.3-99.2-184.7c-17.1-29-29-102.4,32.9-117.6c96-23.6,88.2,109.8,158.1,242.6
		c0,0-24.7-55.9,24.2-270.3c29-126.9,144.5-52.4,109.8,38S338,383.2,338,383.2"/>
	<path class="st0" d="M430.3,363.8c0,0-73.3-96.3-61.5-194.8"/>
	<path class="st0" d="M226.1,651.6c-104.1-37.8-190.4-128.5-118.4-268"/>
	<path class="st0" d="M415,328.8l33.9-109.4c0.6-2,1.2-4,1.7-6.1c4.1-15.5,28.8-96.5,92.5-59.1c70.2,41.3,8.1,153.5-18.3,212.1
		c-16.9,37.4-15.4,101.7-14.9,139.2c0.7,53.3-36.9,147.9-137.5,163.4"/>
	<path class="st1" d="M277.2,615.8c0,0,21.8-73,20.3-108.8c-1.5-35.6-27.4-22-22.1,0.1C280.8,529.5,280.2,582.5,277.2,615.8z"/>
	<path class="st1" d="M327,622.4c0,0,40-89.7,35.9-129.7c-3.6-35.5-24.5-25.9-22-3.3C344.4,520.7,335,589.9,327,622.4z"/>
	<path class="st1" d="M370.4,628.1c0,0,36.8-57.1,45.6-87.1c8.7-29.8-14.9-22.7-16.9-3.5C397,557.1,381.9,600.9,370.4,628.1z"/>
</g>
</svg>
