<svg id="Layer_1" data-name="Layer 1" xmlns="http://www.w3.org/2000/svg" viewBox="0 0 693.74 560"><defs><style>.cls-1{fill:none;}.cls-1,.cls-2{stroke:#000;stroke-linecap:round;stroke-linejoin:round;stroke-width:20px;}</style></defs><title>eastside</title><path class="cls-1" d="M206.76,486S84.15,537.31,69,362.17s72.37-188.34,111.72-180.3" transform="translate(-57.26 -25.5)"/><path class="cls-1" d="M153.21,269.25C159.36,185.83,214,97,348.87,123.64" transform="translate(-57.26 -25.5)"/><path class="cls-1" d="M158.87,424.21S200.24,534.41,349.54,519c4.78-.49,189,49.75,189,49.75s87.28,27.71,104.51-29-73.15-82.14-73.15-82.14l-92.39-27.35c24,2.41,114.38,23.2,114.38-41.27,0-65-114.4-56.23-114.4-56.23l184.7-37.51s89.83-17.73,77.64-75.72S636.2,182.74,636.2,182.74L477.52,210.36,603.42,156s82.65-38.47,58.18-92.44S552.44,50.11,552.44,50.11L348.89,123.66" transform="translate(-57.26 -25.5)"/><path class="cls-2" d="M212.12,258.62s70.91,6.9,103.54-.88c32.45-7.74,15.33-29.12-4-20.29C291.94,246.44,243.24,255.41,212.12,258.62Z" transform="translate(-57.26 -25.5)"/><path class="cls-2" d="M211.48,305.51s90,0.29,125.53,9.76c32.24,8.58,30.26-33.61.48-25.08C301.43,300.52,211.48,305.51,211.48,305.51Z" transform="translate(-57.26 -25.5)"/><path class="cls-2" d="M211.77,351.94s70.91-6.9,103.54.88c32.45,7.74,15.33,29.12-4,20.29C291.59,364.12,242.89,355.15,211.77,351.94Z" transform="translate(-57.26 -25.5)"/></svg>